<?xml version="1.0" encoding="UTF-8" standalone="no"?>
<!DOCTYPE svg PUBLIC "-//W3C//DTD SVG 1.1//EN"
 "http://www.w3.org/Graphics/SVG/1.1/DTD/svg11.dtd">
<!-- Generated by graphviz version 2.43.0 (0)
 -->
<!-- Title: src/BoundCalculations.cpp Pages: 1 -->
<svg width="200pt" height="137pt"
 viewBox="0.00 0.00 200.00 137.00" xmlns="http://www.w3.org/2000/svg" xmlns:xlink="http://www.w3.org/1999/xlink">
<g id="graph0" class="graph" transform="scale(1 1) rotate(0) translate(4 133)">
<title>src/BoundCalculations.cpp</title>
<!-- Node1 -->
<g id="Node000001" class="node">
<title>Node1</title>
<g id="a_Node000001"><a xlink:title="Implementation of the bounding math using pure integer arithmetic.">
<polygon fill="#999999" stroke="#666666" points="168.5,-129 23.5,-129 23.5,-110 168.5,-110 168.5,-129"/>
<text text-anchor="middle" x="96" y="-117" font-family="Helvetica,sans-Serif" font-size="10.00">src/BoundCalculations.cpp</text>
</a>
</g>
</g>
<!-- Node2 -->
<g id="Node000002" class="node">
<title>Node2</title>
<g id="a_Node000002"><a xlink:href="BoundCalculations_8hpp.html" target="_top" xlink:title="Mathematical heuristics and bounding functions for the Branch and Bound algorithm.">
<polygon fill="white" stroke="#666666" points="192,-74 0,-74 0,-55 192,-55 192,-74"/>
<text text-anchor="middle" x="96" y="-62" font-family="Helvetica,sans-Serif" font-size="10.00">GridColoring/BoundCalculations.hpp</text>
</a>
</g>
</g>
<!-- Node1&#45;&gt;Node2 -->
<g id="edge1_Node000001_Node000002" class="edge">
<title>Node1&#45;&gt;Node2</title>
<g id="a_edge1_Node000001_Node000002"><a xlink:title=" ">
<path fill="none" stroke="#63b8ff" d="M96,-109.75C96,-102.8 96,-92.85 96,-84.13"/>
<polygon fill="#63b8ff" stroke="#63b8ff" points="99.5,-84.09 96,-74.09 92.5,-84.09 99.5,-84.09"/>
</a>
</g>
</g>
<!-- Node3 -->
<g id="Node000003" class="node">
<title>Node3</title>
<g id="a_Node000003"><a xlink:title=" ">
<polygon fill="#e0e0e0" stroke="#999999" points="82.5,-19 35.5,-19 35.5,0 82.5,0 82.5,-19"/>
<text text-anchor="middle" x="59" y="-7" font-family="Helvetica,sans-Serif" font-size="10.00">vector</text>
</a>
</g>
</g>
<!-- Node2&#45;&gt;Node3 -->
<g id="edge2_Node000002_Node000003" class="edge">
<title>Node2&#45;&gt;Node3</title>
<g id="a_edge2_Node000002_Node000003"><a xlink:title=" ">
<path fill="none" stroke="#63b8ff" d="M89.89,-54.75C84.72,-47.34 77.15,-36.5 70.81,-27.41"/>
<polygon fill="#63b8ff" stroke="#63b8ff" points="73.59,-25.29 65,-19.09 67.85,-29.29 73.59,-25.29"/>
</a>
</g>
</g>
<!-- Node4 -->
<g id="Node000004" class="node">
<title>Node4</title>
<g id="a_Node000004"><a xlink:title=" ">
<polygon fill="#e0e0e0" stroke="#999999" points="165,-19 101,-19 101,0 165,0 165,-19"/>
<text text-anchor="middle" x="133" y="-7" font-family="Helvetica,sans-Serif" font-size="10.00">algorithm</text>
</a>
</g>
</g>
<!-- Node2&#45;&gt;Node4 -->
<g id="edge3_Node000002_Node000004" class="edge">
<title>Node2&#45;&gt;Node4</title>
<g id="a_edge3_Node000002_Node000004"><a xlink:title=" ">
<path fill="none" stroke="#63b8ff" d="M102.11,-54.75C107.28,-47.34 114.85,-36.5 121.19,-27.41"/>
<polygon fill="#63b8ff" stroke="#63b8ff" points="124.15,-29.29 127,-19.09 118.41,-25.29 124.15,-29.29"/>
</a>
</g>
</g>
</g>
</svg>
