<?xml version="1.0" encoding="UTF-8" standalone="no"?>
<!DOCTYPE svg PUBLIC "-//W3C//DTD SVG 1.1//EN"
 "http://www.w3.org/Graphics/SVG/1.1/DTD/svg11.dtd">
<!-- Generated by graphviz version 2.43.0 (0)
 -->
<!-- Title: include/GridColoring/BranchAndBound.hpp Pages: 1 -->
<svg width="218pt" height="148pt"
 viewBox="0.00 0.00 218.00 148.00" xmlns="http://www.w3.org/2000/svg" xmlns:xlink="http://www.w3.org/1999/xlink">
<g id="graph0" class="graph" transform="scale(1 1) rotate(0) translate(4 144)">
<title>include/GridColoring/BranchAndBound.hpp</title>
<!-- Node1 -->
<g id="Node000001" class="node">
<title>Node1</title>
<g id="a_Node000001"><a xlink:title="Core algorithm implementation combining DFS, heuristics, and mathematical pruning.">
<polygon fill="#999999" stroke="#666666" points="124,-140 0,-140 0,-110 124,-110 124,-140"/>
<text text-anchor="start" x="8" y="-128" font-family="Helvetica,sans-Serif" font-size="10.00">include/GridColoring</text>
<text text-anchor="middle" x="62" y="-117" font-family="Helvetica,sans-Serif" font-size="10.00">/BranchAndBound.hpp</text>
</a>
</g>
</g>
<!-- Node2 -->
<g id="Node000002" class="node">
<title>Node2</title>
<g id="a_Node000002"><a xlink:href="GraphDefinition_8hpp.html" target="_top" xlink:title="Defines the graph structure for the grid coloring problem.">
<polygon fill="white" stroke="#666666" points="210,-74 32,-74 32,-55 210,-55 210,-74"/>
<text text-anchor="middle" x="121" y="-62" font-family="Helvetica,sans-Serif" font-size="10.00">GridColoring/GraphDefinition.hpp</text>
</a>
</g>
</g>
<!-- Node1&#45;&gt;Node2 -->
<g id="edge1_Node000001_Node000002" class="edge">
<title>Node1&#45;&gt;Node2</title>
<g id="a_edge1_Node000001_Node000002"><a xlink:title=" ">
<path fill="none" stroke="#63b8ff" d="M76.28,-109.84C84.93,-101.26 95.99,-90.3 104.94,-81.42"/>
<polygon fill="#63b8ff" stroke="#63b8ff" points="107.52,-83.79 112.16,-74.27 102.59,-78.82 107.52,-83.79"/>
</a>
</g>
</g>
<!-- Node3 -->
<g id="Node000003" class="node">
<title>Node3</title>
<g id="a_Node000003"><a xlink:title=" ">
<polygon fill="#e0e0e0" stroke="#999999" points="53.5,-19 6.5,-19 6.5,0 53.5,0 53.5,-19"/>
<text text-anchor="middle" x="30" y="-7" font-family="Helvetica,sans-Serif" font-size="10.00">vector</text>
</a>
</g>
</g>
<!-- Node1&#45;&gt;Node3 -->
<g id="edge5_Node000001_Node000003" class="edge">
<title>Node1&#45;&gt;Node3</title>
<g id="a_edge5_Node000001_Node000003"><a xlink:title=" ">
<path fill="none" stroke="#63b8ff" d="M46.74,-109.84C37.95,-100.61 27.73,-87.74 23,-74 17.98,-59.41 20.48,-41.94 23.81,-29.01"/>
<polygon fill="#63b8ff" stroke="#63b8ff" points="27.18,-29.98 26.66,-19.39 20.47,-27.99 27.18,-29.98"/>
</a>
</g>
</g>
<!-- Node2&#45;&gt;Node3 -->
<g id="edge2_Node000002_Node000003" class="edge">
<title>Node2&#45;&gt;Node3</title>
<g id="a_edge2_Node000002_Node000003"><a xlink:title=" ">
<path fill="none" stroke="#63b8ff" d="M106.38,-54.98C92.14,-46.69 70.25,-33.94 53.55,-24.22"/>
<polygon fill="#63b8ff" stroke="#63b8ff" points="55.29,-21.18 44.89,-19.17 51.77,-27.23 55.29,-21.18"/>
</a>
</g>
</g>
<!-- Node4 -->
<g id="Node000004" class="node">
<title>Node4</title>
<g id="a_Node000004"><a xlink:title=" ">
<polygon fill="#e0e0e0" stroke="#999999" points="129,-19 85,-19 85,0 129,0 129,-19"/>
<text text-anchor="middle" x="107" y="-7" font-family="Helvetica,sans-Serif" font-size="10.00">limits</text>
</a>
</g>
</g>
<!-- Node2&#45;&gt;Node4 -->
<g id="edge3_Node000002_Node000004" class="edge">
<title>Node2&#45;&gt;Node4</title>
<g id="a_edge3_Node000002_Node000004"><a xlink:title=" ">
<path fill="none" stroke="#63b8ff" d="M118.69,-54.75C116.83,-47.72 114.16,-37.62 111.85,-28.84"/>
<polygon fill="#63b8ff" stroke="#63b8ff" points="115.21,-27.86 109.27,-19.09 108.44,-29.65 115.21,-27.86"/>
</a>
</g>
</g>
<!-- Node5 -->
<g id="Node000005" class="node">
<title>Node5</title>
<g id="a_Node000005"><a xlink:title=" ">
<polygon fill="#e0e0e0" stroke="#999999" points="192.5,-19 147.5,-19 147.5,0 192.5,0 192.5,-19"/>
<text text-anchor="middle" x="170" y="-7" font-family="Helvetica,sans-Serif" font-size="10.00">utility</text>
</a>
</g>
</g>
<!-- Node2&#45;&gt;Node5 -->
<g id="edge4_Node000002_Node000005" class="edge">
<title>Node2&#45;&gt;Node5</title>
<g id="a_edge4_Node000002_Node000005"><a xlink:title=" ">
<path fill="none" stroke="#63b8ff" d="M129.09,-54.75C136.16,-47.11 146.59,-35.82 155.15,-26.56"/>
<polygon fill="#63b8ff" stroke="#63b8ff" points="157.84,-28.81 162.06,-19.09 152.7,-24.06 157.84,-28.81"/>
</a>
</g>
</g>
</g>
</svg>
