<?xml version="1.0" encoding="UTF-8" standalone="no"?>
<!DOCTYPE svg PUBLIC "-//W3C//DTD SVG 1.1//EN"
 "http://www.w3.org/Graphics/SVG/1.1/DTD/svg11.dtd">
<!-- Generated by graphviz version 2.43.0 (0)
 -->
<!-- Title: src/BranchAndBound.cpp Pages: 1 -->
<svg width="516pt" height="192pt"
 viewBox="0.00 0.00 515.50 192.00" xmlns="http://www.w3.org/2000/svg" xmlns:xlink="http://www.w3.org/1999/xlink">
<g id="graph0" class="graph" transform="scale(1 1) rotate(0) translate(4 188)">
<title>src/BranchAndBound.cpp</title>
<!-- Node1 -->
<g id="Node000001" class="node">
<title>Node1</title>
<g id="a_Node000001"><a xlink:title="Implementation of the Branch and Bound algorithm.">
<polygon fill="#999999" stroke="#666666" points="430,-184 293,-184 293,-165 430,-165 430,-184"/>
<text text-anchor="middle" x="361.5" y="-172" font-family="Helvetica,sans-Serif" font-size="10.00">src/BranchAndBound.cpp</text>
</a>
</g>
</g>
<!-- Node2 -->
<g id="Node000002" class="node">
<title>Node2</title>
<g id="a_Node000002"><a xlink:href="BranchAndBound_8hpp.html" target="_top" xlink:title="Core algorithm implementation combining DFS, heuristics, and mathematical pruning.">
<polygon fill="white" stroke="#666666" points="185,-129 0,-129 0,-110 185,-110 185,-129"/>
<text text-anchor="middle" x="92.5" y="-117" font-family="Helvetica,sans-Serif" font-size="10.00">GridColoring/BranchAndBound.hpp</text>
</a>
</g>
</g>
<!-- Node1&#45;&gt;Node2 -->
<g id="edge1_Node000001_Node000002" class="edge">
<title>Node1&#45;&gt;Node2</title>
<g id="a_edge1_Node000001_Node000002"><a xlink:title=" ">
<path fill="none" stroke="#63b8ff" d="M318.28,-164.98C271.46,-155.76 196.69,-141.03 146.14,-131.07"/>
<polygon fill="#63b8ff" stroke="#63b8ff" points="146.55,-127.58 136.06,-129.08 145.19,-134.45 146.55,-127.58"/>
</a>
</g>
</g>
<!-- Node7 -->
<g id="Node000007" class="node">
<title>Node7</title>
<g id="a_Node000007"><a xlink:href="BoundCalculations_8hpp.html" target="_top" xlink:title="Mathematical heuristics and bounding functions for the Branch and Bound algorithm.">
<polygon fill="white" stroke="#666666" points="395.5,-129 203.5,-129 203.5,-110 395.5,-110 395.5,-129"/>
<text text-anchor="middle" x="299.5" y="-117" font-family="Helvetica,sans-Serif" font-size="10.00">GridColoring/BoundCalculations.hpp</text>
</a>
</g>
</g>
<!-- Node1&#45;&gt;Node7 -->
<g id="edge7_Node000001_Node000007" class="edge">
<title>Node1&#45;&gt;Node7</title>
<g id="a_edge7_Node000001_Node000007"><a xlink:title=" ">
<path fill="none" stroke="#63b8ff" d="M351.54,-164.98C342.37,-157.15 328.56,-145.34 317.47,-135.86"/>
<polygon fill="#63b8ff" stroke="#63b8ff" points="319.52,-133.01 309.64,-129.17 314.97,-138.33 319.52,-133.01"/>
</a>
</g>
</g>
<!-- Node8 -->
<g id="Node000008" class="node">
<title>Node8</title>
<g id="a_Node000008"><a xlink:title=" ">
<polygon fill="#e0e0e0" stroke="#999999" points="410.5,-74 346.5,-74 346.5,-55 410.5,-55 410.5,-74"/>
<text text-anchor="middle" x="378.5" y="-62" font-family="Helvetica,sans-Serif" font-size="10.00">algorithm</text>
</a>
</g>
</g>
<!-- Node1&#45;&gt;Node8 -->
<g id="edge10_Node000001_Node000008" class="edge">
<title>Node1&#45;&gt;Node8</title>
<g id="a_edge10_Node000001_Node000008"><a xlink:title=" ">
<path fill="none" stroke="#63b8ff" d="M373.99,-164.93C384.37,-156.99 398.38,-144.14 404.5,-129 410.96,-113.03 401.82,-94.83 392.65,-82.03"/>
<polygon fill="#63b8ff" stroke="#63b8ff" points="395.39,-79.85 386.48,-74.12 389.87,-84.16 395.39,-79.85"/>
</a>
</g>
</g>
<!-- Node9 -->
<g id="Node000009" class="node">
<title>Node9</title>
<g id="a_Node000009"><a xlink:title=" ">
<polygon fill="#e0e0e0" stroke="#999999" points="507.5,-129 451.5,-129 451.5,-110 507.5,-110 507.5,-129"/>
<text text-anchor="middle" x="479.5" y="-117" font-family="Helvetica,sans-Serif" font-size="10.00">numeric</text>
</a>
</g>
</g>
<!-- Node1&#45;&gt;Node9 -->
<g id="edge11_Node000001_Node000009" class="edge">
<title>Node1&#45;&gt;Node9</title>
<g id="a_edge11_Node000001_Node000009"><a xlink:title=" ">
<path fill="none" stroke="#63b8ff" d="M380.46,-164.98C399.53,-156.42 429.16,-143.11 451.05,-133.28"/>
<polygon fill="#63b8ff" stroke="#63b8ff" points="452.51,-136.46 460.2,-129.17 449.64,-130.07 452.51,-136.46"/>
</a>
</g>
</g>
<!-- Node3 -->
<g id="Node000003" class="node">
<title>Node3</title>
<g id="a_Node000003"><a xlink:href="GraphDefinition_8hpp.html" target="_top" xlink:title="Defines the graph structure for the grid coloring problem.">
<polygon fill="white" stroke="#666666" points="181.5,-74 3.5,-74 3.5,-55 181.5,-55 181.5,-74"/>
<text text-anchor="middle" x="92.5" y="-62" font-family="Helvetica,sans-Serif" font-size="10.00">GridColoring/GraphDefinition.hpp</text>
</a>
</g>
</g>
<!-- Node2&#45;&gt;Node3 -->
<g id="edge2_Node000002_Node000003" class="edge">
<title>Node2&#45;&gt;Node3</title>
<g id="a_edge2_Node000002_Node000003"><a xlink:title=" ">
<path fill="none" stroke="#63b8ff" d="M92.5,-109.75C92.5,-102.8 92.5,-92.85 92.5,-84.13"/>
<polygon fill="#63b8ff" stroke="#63b8ff" points="96,-84.09 92.5,-74.09 89,-84.09 96,-84.09"/>
</a>
</g>
</g>
<!-- Node4 -->
<g id="Node000004" class="node">
<title>Node4</title>
<g id="a_Node000004"><a xlink:title=" ">
<polygon fill="#e0e0e0" stroke="#999999" points="233,-19 186,-19 186,0 233,0 233,-19"/>
<text text-anchor="middle" x="209.5" y="-7" font-family="Helvetica,sans-Serif" font-size="10.00">vector</text>
</a>
</g>
</g>
<!-- Node2&#45;&gt;Node4 -->
<g id="edge6_Node000002_Node000004" class="edge">
<title>Node2&#45;&gt;Node4</title>
<g id="a_edge6_Node000002_Node000004"><a xlink:title=" ">
<path fill="none" stroke="#63b8ff" d="M129.22,-109.92C149.89,-103.32 174.65,-92.16 190.5,-74 201.26,-61.67 205.93,-43.45 207.95,-29.68"/>
<polygon fill="#63b8ff" stroke="#63b8ff" points="211.47,-29.72 209.11,-19.4 204.51,-28.94 211.47,-29.72"/>
</a>
</g>
</g>
<!-- Node3&#45;&gt;Node4 -->
<g id="edge3_Node000003_Node000004" class="edge">
<title>Node3&#45;&gt;Node4</title>
<g id="a_edge3_Node000003_Node000004"><a xlink:title=" ">
<path fill="none" stroke="#63b8ff" d="M111.3,-54.98C130.12,-46.46 159.32,-33.23 181,-23.41"/>
<polygon fill="#63b8ff" stroke="#63b8ff" points="182.7,-26.48 190.36,-19.17 179.81,-20.11 182.7,-26.48"/>
</a>
</g>
</g>
<!-- Node5 -->
<g id="Node000005" class="node">
<title>Node5</title>
<g id="a_Node000005"><a xlink:title=" ">
<polygon fill="#e0e0e0" stroke="#999999" points="78.5,-19 34.5,-19 34.5,0 78.5,0 78.5,-19"/>
<text text-anchor="middle" x="56.5" y="-7" font-family="Helvetica,sans-Serif" font-size="10.00">limits</text>
</a>
</g>
</g>
<!-- Node3&#45;&gt;Node5 -->
<g id="edge4_Node000003_Node000005" class="edge">
<title>Node3&#45;&gt;Node5</title>
<g id="a_edge4_Node000003_Node000005"><a xlink:title=" ">
<path fill="none" stroke="#63b8ff" d="M86.56,-54.75C81.52,-47.34 74.16,-36.5 67.99,-27.41"/>
<polygon fill="#63b8ff" stroke="#63b8ff" points="70.85,-25.39 62.33,-19.09 65.06,-29.33 70.85,-25.39"/>
</a>
</g>
</g>
<!-- Node6 -->
<g id="Node000006" class="node">
<title>Node6</title>
<g id="a_Node000006"><a xlink:title=" ">
<polygon fill="#e0e0e0" stroke="#999999" points="142,-19 97,-19 97,0 142,0 142,-19"/>
<text text-anchor="middle" x="119.5" y="-7" font-family="Helvetica,sans-Serif" font-size="10.00">utility</text>
</a>
</g>
</g>
<!-- Node3&#45;&gt;Node6 -->
<g id="edge5_Node000003_Node000006" class="edge">
<title>Node3&#45;&gt;Node6</title>
<g id="a_edge5_Node000003_Node000006"><a xlink:title=" ">
<path fill="none" stroke="#63b8ff" d="M96.96,-54.75C100.62,-47.57 105.91,-37.18 110.45,-28.27"/>
<polygon fill="#63b8ff" stroke="#63b8ff" points="113.7,-29.59 115.12,-19.09 107.47,-26.41 113.7,-29.59"/>
</a>
</g>
</g>
<!-- Node7&#45;&gt;Node4 -->
<g id="edge8_Node000007_Node000004" class="edge">
<title>Node7&#45;&gt;Node4</title>
<g id="a_edge8_Node000007_Node000004"><a xlink:title=" ">
<path fill="none" stroke="#63b8ff" d="M292.13,-109.66C277.1,-91.61 242.65,-50.28 223.31,-27.08"/>
<polygon fill="#63b8ff" stroke="#63b8ff" points="225.81,-24.6 216.72,-19.16 220.43,-29.08 225.81,-24.6"/>
</a>
</g>
</g>
<!-- Node7&#45;&gt;Node8 -->
<g id="edge9_Node000007_Node000008" class="edge">
<title>Node7&#45;&gt;Node8</title>
<g id="a_edge9_Node000007_Node000008"><a xlink:title=" ">
<path fill="none" stroke="#63b8ff" d="M312.19,-109.98C324.33,-101.84 342.86,-89.41 357.25,-79.76"/>
<polygon fill="#63b8ff" stroke="#63b8ff" points="359.22,-82.65 365.58,-74.17 355.32,-76.84 359.22,-82.65"/>
</a>
</g>
</g>
</g>
</svg>
