<?xml version="1.0" encoding="UTF-8" standalone="no"?>
<!DOCTYPE svg PUBLIC "-//W3C//DTD SVG 1.1//EN"
 "http://www.w3.org/Graphics/SVG/1.1/DTD/svg11.dtd">
<!-- Generated by graphviz version 14.1.2 (0)
 -->
<!-- Title: include/GridColoring/BoundCalculations.hpp Pages: 1 -->
<svg width="286pt" height="96pt"
 viewBox="0.00 0.00 286.00 96.00" xmlns="http://www.w3.org/2000/svg" xmlns:xlink="http://www.w3.org/1999/xlink">
<g id="graph0" class="graph" transform="scale(1 1) rotate(0) translate(4 92)">
<title>include/GridColoring/BoundCalculations.hpp</title>
<!-- Node1 -->
<g id="Node000001" class="node">
<title>Node1</title>
<g id="a_Node000001"><a xlink:title="Mathematical heuristics and bounding functions for the Branch and Bound algorithm.">
<polygon fill="#999999" stroke="#666666" points="200.25,-88 80.75,-88 80.75,-56 200.25,-56 200.25,-88"/>
<text xml:space="preserve" text-anchor="start" x="88.75" y="-74.5" font-family="Helvetica,sans-Serif" font-size="10.00">include/GridColoring</text>
<text xml:space="preserve" text-anchor="middle" x="140.5" y="-62.5" font-family="Helvetica,sans-Serif" font-size="10.00">/BoundCalculations.hpp</text>
</a>
</g>
</g>
<!-- Node2 -->
<g id="Node000002" class="node">
<title>Node2</title>
<g id="a_Node000002"><a xlink:href="BoundCalculations_8cpp.html" target="_top" xlink:title="Implementation of the bounding math using pure integer arithmetic.">
<polygon fill="white" stroke="#666666" points="133,-20 0,-20 0,0 133,0 133,-20"/>
<text xml:space="preserve" text-anchor="middle" x="66.5" y="-6.5" font-family="Helvetica,sans-Serif" font-size="10.00">src/BoundCalculations.cpp</text>
</a>
</g>
</g>
<!-- Node1&#45;&gt;Node2 -->
<g id="edge1_Node000001_Node000002" class="edge">
<title>Node1&#45;&gt;Node2</title>
<g id="a_edge1_Node000001_Node000002"><a xlink:title=" ">
<path fill="none" stroke="#63b8ff" d="M112.65,-48.42C100.68,-38.71 87.35,-27.9 78.1,-20.41"/>
<polygon fill="#63b8ff" stroke="#63b8ff" points="110.3,-51.02 120.27,-54.6 114.7,-45.58 110.3,-51.02"/>
</a>
</g>
</g>
<!-- Node3 -->
<g id="Node000003" class="node">
<title>Node3</title>
<g id="a_Node000003"><a xlink:href="BranchAndBound_8cpp.html" target="_top" xlink:title="Implementation of the Branch and Bound algorithm.">
<polygon fill="white" stroke="#666666" points="278,-20 151,-20 151,0 278,0 278,-20"/>
<text xml:space="preserve" text-anchor="middle" x="214.5" y="-6.5" font-family="Helvetica,sans-Serif" font-size="10.00">src/BranchAndBound.cpp</text>
</a>
</g>
</g>
<!-- Node1&#45;&gt;Node3 -->
<g id="edge2_Node000001_Node000003" class="edge">
<title>Node1&#45;&gt;Node3</title>
<g id="a_edge2_Node000001_Node000003"><a xlink:title=" ">
<path fill="none" stroke="#63b8ff" d="M168.35,-48.42C180.32,-38.71 193.65,-27.9 202.9,-20.41"/>
<polygon fill="#63b8ff" stroke="#63b8ff" points="166.3,-45.58 160.73,-54.6 170.7,-51.02 166.3,-45.58"/>
</a>
</g>
</g>
</g>
</svg>
