<?xml version="1.0" encoding="UTF-8" standalone="no"?>
<!DOCTYPE svg PUBLIC "-//W3C//DTD SVG 1.1//EN"
 "http://www.w3.org/Graphics/SVG/1.1/DTD/svg11.dtd">
<!-- Generated by graphviz version 14.1.2 (0)
 -->
<!-- Title: src/BranchAndBound.cpp Pages: 1 -->
<svg width="474pt" height="196pt"
 viewBox="0.00 0.00 474.00 196.00" xmlns="http://www.w3.org/2000/svg" xmlns:xlink="http://www.w3.org/1999/xlink">
<g id="graph0" class="graph" transform="scale(1 1) rotate(0) translate(4 192)">
<title>src/BranchAndBound.cpp</title>
<!-- Node1 -->
<g id="Node000001" class="node">
<title>Node1</title>
<g id="a_Node000001"><a xlink:title="Implementation of the Branch and Bound algorithm.">
<polygon fill="#999999" stroke="#666666" points="393.25,-188 266.25,-188 266.25,-168 393.25,-168 393.25,-188"/>
<text xml:space="preserve" text-anchor="middle" x="329.75" y="-174.5" font-family="Helvetica,sans-Serif" font-size="10.00">src/BranchAndBound.cpp</text>
</a>
</g>
</g>
<!-- Node2 -->
<g id="Node000002" class="node">
<title>Node2</title>
<g id="a_Node000002"><a xlink:href="BranchAndBound_8hpp.html" target="_top" xlink:title="Core algorithm implementation combining DFS, heuristics, and mathematical pruning.">
<polygon fill="white" stroke="#666666" points="167.5,-132 0,-132 0,-112 167.5,-112 167.5,-132"/>
<text xml:space="preserve" text-anchor="middle" x="83.75" y="-118.5" font-family="Helvetica,sans-Serif" font-size="10.00">GridColoring/BranchAndBound.hpp</text>
</a>
</g>
</g>
<!-- Node1&#45;&gt;Node2 -->
<g id="edge1_Node000001_Node000002" class="edge">
<title>Node1&#45;&gt;Node2</title>
<g id="a_edge1_Node000001_Node000002"><a xlink:title=" ">
<path fill="none" stroke="#63b8ff" d="M286.62,-167.53C245.29,-158.46 182.78,-144.74 138.08,-134.93"/>
<polygon fill="#63b8ff" stroke="#63b8ff" points="138.83,-131.51 128.31,-132.78 137.33,-138.34 138.83,-131.51"/>
</a>
</g>
</g>
<!-- Node7 -->
<g id="Node000007" class="node">
<title>Node7</title>
<g id="a_Node000007"><a xlink:href="BoundCalculations_8hpp.html" target="_top" xlink:title="Mathematical heuristics and bounding functions for the Branch and Bound algorithm.">
<polygon fill="white" stroke="#666666" points="359.5,-132 186,-132 186,-112 359.5,-112 359.5,-132"/>
<text xml:space="preserve" text-anchor="middle" x="272.75" y="-118.5" font-family="Helvetica,sans-Serif" font-size="10.00">GridColoring/BoundCalculations.hpp</text>
</a>
</g>
</g>
<!-- Node1&#45;&gt;Node7 -->
<g id="edge7_Node000001_Node000007" class="edge">
<title>Node1&#45;&gt;Node7</title>
<g id="a_edge7_Node000001_Node000007"><a xlink:title=" ">
<path fill="none" stroke="#63b8ff" d="M319.82,-167.59C311.81,-160.01 300.33,-149.13 290.72,-140.02"/>
<polygon fill="#63b8ff" stroke="#63b8ff" points="293.33,-137.68 283.66,-133.34 288.52,-142.76 293.33,-137.68"/>
</a>
</g>
</g>
<!-- Node8 -->
<g id="Node000008" class="node">
<title>Node8</title>
<g id="a_Node000008"><a xlink:title=" ">
<polygon fill="#e0e0e0" stroke="#999999" points="374.62,-76 318.88,-76 318.88,-56 374.62,-56 374.62,-76"/>
<text xml:space="preserve" text-anchor="middle" x="346.75" y="-62.5" font-family="Helvetica,sans-Serif" font-size="10.00">algorithm</text>
</a>
</g>
</g>
<!-- Node1&#45;&gt;Node8 -->
<g id="edge10_Node000001_Node000008" class="edge">
<title>Node1&#45;&gt;Node8</title>
<g id="a_edge10_Node000001_Node000008"><a xlink:title=" ">
<path fill="none" stroke="#63b8ff" d="M341.48,-167.72C350.87,-159.48 363.33,-146.53 368.75,-132 374.53,-116.5 367.57,-98.69 359.98,-85.63"/>
<polygon fill="#63b8ff" stroke="#63b8ff" points="363.17,-84.12 354.82,-77.59 357.28,-87.9 363.17,-84.12"/>
</a>
</g>
</g>
<!-- Node9 -->
<g id="Node000009" class="node">
<title>Node9</title>
<g id="a_Node000009"><a xlink:title=" ">
<polygon fill="#e0e0e0" stroke="#999999" points="466,-132 415.5,-132 415.5,-112 466,-112 466,-132"/>
<text xml:space="preserve" text-anchor="middle" x="440.75" y="-118.5" font-family="Helvetica,sans-Serif" font-size="10.00">numeric</text>
</a>
</g>
</g>
<!-- Node1&#45;&gt;Node9 -->
<g id="edge11_Node000001_Node000009" class="edge">
<title>Node1&#45;&gt;Node9</title>
<g id="a_edge11_Node000001_Node000009"><a xlink:title=" ">
<path fill="none" stroke="#63b8ff" d="M349.08,-167.59C366.17,-159.28 391.35,-147.03 411,-137.47"/>
<polygon fill="#63b8ff" stroke="#63b8ff" points="412.44,-140.66 419.9,-133.14 409.38,-134.37 412.44,-140.66"/>
</a>
</g>
</g>
<!-- Node3 -->
<g id="Node000003" class="node">
<title>Node3</title>
<g id="a_Node000003"><a xlink:href="GraphDefinition_8hpp.html" target="_top" xlink:title="Defines the graph structure for the grid coloring problem.">
<polygon fill="white" stroke="#666666" points="163.38,-76 4.12,-76 4.12,-56 163.38,-56 163.38,-76"/>
<text xml:space="preserve" text-anchor="middle" x="83.75" y="-62.5" font-family="Helvetica,sans-Serif" font-size="10.00">GridColoring/GraphDefinition.hpp</text>
</a>
</g>
</g>
<!-- Node2&#45;&gt;Node3 -->
<g id="edge2_Node000002_Node000003" class="edge">
<title>Node2&#45;&gt;Node3</title>
<g id="a_edge2_Node000002_Node000003"><a xlink:title=" ">
<path fill="none" stroke="#63b8ff" d="M83.75,-111.59C83.75,-105.01 83.75,-95.96 83.75,-87.73"/>
<polygon fill="#63b8ff" stroke="#63b8ff" points="87.25,-87.81 83.75,-77.81 80.25,-87.81 87.25,-87.81"/>
</a>
</g>
</g>
<!-- Node4 -->
<g id="Node000004" class="node">
<title>Node4</title>
<g id="a_Node000004"><a xlink:title=" ">
<polygon fill="#e0e0e0" stroke="#999999" points="213.25,-20 170.25,-20 170.25,0 213.25,0 213.25,-20"/>
<text xml:space="preserve" text-anchor="middle" x="191.75" y="-6.5" font-family="Helvetica,sans-Serif" font-size="10.00">vector</text>
</a>
</g>
</g>
<!-- Node2&#45;&gt;Node4 -->
<g id="edge6_Node000002_Node000004" class="edge">
<title>Node2&#45;&gt;Node4</title>
<g id="a_edge6_Node000002_Node000004"><a xlink:title=" ">
<path fill="none" stroke="#63b8ff" d="M116.75,-111.61C135.64,-104.64 158.36,-93.31 172.75,-76 183.11,-63.54 187.82,-45.66 189.96,-31.8"/>
<polygon fill="#63b8ff" stroke="#63b8ff" points="193.43,-32.33 191.12,-21.99 186.47,-31.51 193.43,-32.33"/>
</a>
</g>
</g>
<!-- Node3&#45;&gt;Node4 -->
<g id="edge3_Node000003_Node000004" class="edge">
<title>Node3&#45;&gt;Node4</title>
<g id="a_edge3_Node000003_Node000004"><a xlink:title=" ">
<path fill="none" stroke="#63b8ff" d="M102.56,-55.59C119.11,-47.32 143.46,-35.14 162.54,-25.6"/>
<polygon fill="#63b8ff" stroke="#63b8ff" points="164.06,-28.76 171.44,-21.16 160.93,-22.5 164.06,-28.76"/>
</a>
</g>
</g>
<!-- Node5 -->
<g id="Node000005" class="node">
<title>Node5</title>
<g id="a_Node000005"><a xlink:title=" ">
<polygon fill="#e0e0e0" stroke="#999999" points="71.38,-20 32.12,-20 32.12,0 71.38,0 71.38,-20"/>
<text xml:space="preserve" text-anchor="middle" x="51.75" y="-6.5" font-family="Helvetica,sans-Serif" font-size="10.00">limits</text>
</a>
</g>
</g>
<!-- Node3&#45;&gt;Node5 -->
<g id="edge4_Node000003_Node000005" class="edge">
<title>Node3&#45;&gt;Node5</title>
<g id="a_edge4_Node000003_Node000005"><a xlink:title=" ">
<path fill="none" stroke="#63b8ff" d="M78.18,-55.59C74,-48.55 68.15,-38.67 63.01,-30"/>
<polygon fill="#63b8ff" stroke="#63b8ff" points="66.14,-28.42 58.03,-21.6 60.12,-31.99 66.14,-28.42"/>
</a>
</g>
</g>
<!-- Node6 -->
<g id="Node000006" class="node">
<title>Node6</title>
<g id="a_Node000006"><a xlink:title=" ">
<polygon fill="#e0e0e0" stroke="#999999" points="128.38,-20 89.12,-20 89.12,0 128.38,0 128.38,-20"/>
<text xml:space="preserve" text-anchor="middle" x="108.75" y="-6.5" font-family="Helvetica,sans-Serif" font-size="10.00">utility</text>
</a>
</g>
</g>
<!-- Node3&#45;&gt;Node6 -->
<g id="edge5_Node000003_Node000006" class="edge">
<title>Node3&#45;&gt;Node6</title>
<g id="a_edge5_Node000003_Node000006"><a xlink:title=" ">
<path fill="none" stroke="#63b8ff" d="M88.1,-55.59C91.3,-48.7 95.74,-39.1 99.69,-30.57"/>
<polygon fill="#63b8ff" stroke="#63b8ff" points="102.78,-32.22 103.81,-21.67 96.43,-29.28 102.78,-32.22"/>
</a>
</g>
</g>
<!-- Node7&#45;&gt;Node4 -->
<g id="edge8_Node000007_Node000004" class="edge">
<title>Node7&#45;&gt;Node4</title>
<g id="a_edge8_Node000007_Node000004"><a xlink:title=" ">
<path fill="none" stroke="#63b8ff" d="M265.84,-111.62C252.45,-93.44 222.75,-53.09 205.29,-29.38"/>
<polygon fill="#63b8ff" stroke="#63b8ff" points="208.28,-27.55 199.54,-21.57 202.65,-31.7 208.28,-27.55"/>
</a>
</g>
</g>
<!-- Node7&#45;&gt;Node8 -->
<g id="edge9_Node000007_Node000008" class="edge">
<title>Node7&#45;&gt;Node8</title>
<g id="a_edge9_Node000007_Node000008"><a xlink:title=" ">
<path fill="none" stroke="#63b8ff" d="M285.64,-111.59C296.46,-103.7 312.16,-92.24 324.94,-82.92"/>
<polygon fill="#63b8ff" stroke="#63b8ff" points="326.77,-85.91 332.79,-77.19 322.64,-80.26 326.77,-85.91"/>
</a>
</g>
</g>
</g>
</svg>
