<?xml version="1.0" encoding="UTF-8" standalone="no"?>
<!DOCTYPE svg PUBLIC "-//W3C//DTD SVG 1.1//EN"
 "http://www.w3.org/Graphics/SVG/1.1/DTD/svg11.dtd">
<!-- Generated by graphviz version 14.1.2 (0)
 -->
<!-- Title: include/GridColoring/BranchAndBound.hpp Pages: 1 -->
<svg width="198pt" height="152pt"
 viewBox="0.00 0.00 198.00 152.00" xmlns="http://www.w3.org/2000/svg" xmlns:xlink="http://www.w3.org/1999/xlink">
<g id="graph0" class="graph" transform="scale(1 1) rotate(0) translate(4 148)">
<title>include/GridColoring/BranchAndBound.hpp</title>
<!-- Node1 -->
<g id="Node000001" class="node">
<title>Node1</title>
<g id="a_Node000001"><a xlink:title="Core algorithm implementation combining DFS, heuristics, and mathematical pruning.">
<polygon fill="#999999" stroke="#666666" points="113.5,-144 0,-144 0,-112 113.5,-112 113.5,-144"/>
<text xml:space="preserve" text-anchor="start" x="8" y="-130.5" font-family="Helvetica,sans-Serif" font-size="10.00">include/GridColoring</text>
<text xml:space="preserve" text-anchor="middle" x="56.75" y="-118.5" font-family="Helvetica,sans-Serif" font-size="10.00">/BranchAndBound.hpp</text>
</a>
</g>
</g>
<!-- Node2 -->
<g id="Node000002" class="node">
<title>Node2</title>
<g id="a_Node000002"><a xlink:href="GraphDefinition_8hpp.html" target="_top" xlink:title="Defines the graph structure for the grid coloring problem.">
<polygon fill="white" stroke="#666666" points="190.38,-76 31.12,-76 31.12,-56 190.38,-56 190.38,-76"/>
<text xml:space="preserve" text-anchor="middle" x="110.75" y="-62.5" font-family="Helvetica,sans-Serif" font-size="10.00">GridColoring/GraphDefinition.hpp</text>
</a>
</g>
</g>
<!-- Node1&#45;&gt;Node2 -->
<g id="edge1_Node000001_Node000002" class="edge">
<title>Node1&#45;&gt;Node2</title>
<g id="a_edge1_Node000001_Node000002"><a xlink:title=" ">
<path fill="none" stroke="#63b8ff" d="M70.66,-111.55C78,-103.39 87.05,-93.33 94.69,-84.84"/>
<polygon fill="#63b8ff" stroke="#63b8ff" points="97.18,-87.31 101.27,-77.53 91.98,-82.62 97.18,-87.31"/>
</a>
</g>
</g>
<!-- Node3 -->
<g id="Node000003" class="node">
<title>Node3</title>
<g id="a_Node000003"><a xlink:title=" ">
<polygon fill="#e0e0e0" stroke="#999999" points="48.25,-20 5.25,-20 5.25,0 48.25,0 48.25,-20"/>
<text xml:space="preserve" text-anchor="middle" x="26.75" y="-6.5" font-family="Helvetica,sans-Serif" font-size="10.00">vector</text>
</a>
</g>
</g>
<!-- Node1&#45;&gt;Node3 -->
<g id="edge5_Node000001_Node000003" class="edge">
<title>Node1&#45;&gt;Node3</title>
<g id="a_edge5_Node000001_Node000003"><a xlink:title=" ">
<path fill="none" stroke="#63b8ff" d="M42.67,-111.79C34.85,-102.28 25.89,-89.33 21.75,-76 17.23,-61.42 18.86,-44.16 21.42,-31.09"/>
<polygon fill="#63b8ff" stroke="#63b8ff" points="24.78,-32.07 23.64,-21.54 17.96,-30.49 24.78,-32.07"/>
</a>
</g>
</g>
<!-- Node2&#45;&gt;Node3 -->
<g id="edge2_Node000002_Node000003" class="edge">
<title>Node2&#45;&gt;Node3</title>
<g id="a_edge2_Node000002_Node000003"><a xlink:title=" ">
<path fill="none" stroke="#63b8ff" d="M96.12,-55.59C83.67,-47.59 65.53,-35.93 50.93,-26.54"/>
<polygon fill="#63b8ff" stroke="#63b8ff" points="53.07,-23.76 42.77,-21.3 49.29,-29.65 53.07,-23.76"/>
</a>
</g>
</g>
<!-- Node4 -->
<g id="Node000004" class="node">
<title>Node4</title>
<g id="a_Node000004"><a xlink:title=" ">
<polygon fill="#e0e0e0" stroke="#999999" points="117.38,-20 78.12,-20 78.12,0 117.38,0 117.38,-20"/>
<text xml:space="preserve" text-anchor="middle" x="97.75" y="-6.5" font-family="Helvetica,sans-Serif" font-size="10.00">limits</text>
</a>
</g>
</g>
<!-- Node2&#45;&gt;Node4 -->
<g id="edge3_Node000002_Node000004" class="edge">
<title>Node2&#45;&gt;Node4</title>
<g id="a_edge3_Node000002_Node000004"><a xlink:title=" ">
<path fill="none" stroke="#63b8ff" d="M108.49,-55.59C106.88,-48.93 104.67,-39.75 102.67,-31.44"/>
<polygon fill="#63b8ff" stroke="#63b8ff" points="106.09,-30.67 100.34,-21.77 99.28,-32.31 106.09,-30.67"/>
</a>
</g>
</g>
<!-- Node5 -->
<g id="Node000005" class="node">
<title>Node5</title>
<g id="a_Node000005"><a xlink:title=" ">
<polygon fill="#e0e0e0" stroke="#999999" points="174.38,-20 135.12,-20 135.12,0 174.38,0 174.38,-20"/>
<text xml:space="preserve" text-anchor="middle" x="154.75" y="-6.5" font-family="Helvetica,sans-Serif" font-size="10.00">utility</text>
</a>
</g>
</g>
<!-- Node2&#45;&gt;Node5 -->
<g id="edge4_Node000002_Node000005" class="edge">
<title>Node2&#45;&gt;Node5</title>
<g id="a_edge4_Node000002_Node000005"><a xlink:title=" ">
<path fill="none" stroke="#63b8ff" d="M118.41,-55.59C124.34,-48.32 132.74,-38.02 139.96,-29.15"/>
<polygon fill="#63b8ff" stroke="#63b8ff" points="142.61,-31.43 146.22,-21.47 137.19,-27.01 142.61,-31.43"/>
</a>
</g>
</g>
</g>
</svg>
