<?xml version="1.0" encoding="UTF-8" standalone="no"?>
<!DOCTYPE svg PUBLIC "-//W3C//DTD SVG 1.1//EN"
 "http://www.w3.org/Graphics/SVG/1.1/DTD/svg11.dtd">
<!-- Generated by graphviz version 14.1.2 (0)
 -->
<!-- Title: src/GraphDefinition.cpp Pages: 1 -->
<svg width="168pt" height="140pt"
 viewBox="0.00 0.00 168.00 140.00" xmlns="http://www.w3.org/2000/svg" xmlns:xlink="http://www.w3.org/1999/xlink">
<g id="graph0" class="graph" transform="scale(1 1) rotate(0) translate(4 136)">
<title>src/GraphDefinition.cpp</title>
<!-- Node1 -->
<g id="Node000001" class="node">
<title>Node1</title>
<g id="a_Node000001"><a xlink:title="Implementation of the graph structure for the grid coloring problem.">
<polygon fill="#999999" stroke="#666666" points="139.88,-132 21.12,-132 21.12,-112 139.88,-112 139.88,-132"/>
<text xml:space="preserve" text-anchor="middle" x="80.5" y="-118.5" font-family="Helvetica,sans-Serif" font-size="10.00">src/GraphDefinition.cpp</text>
</a>
</g>
</g>
<!-- Node2 -->
<g id="Node000002" class="node">
<title>Node2</title>
<g id="a_Node000002"><a xlink:href="GraphDefinition_8hpp.html" target="_top" xlink:title="Defines the graph structure for the grid coloring problem.">
<polygon fill="white" stroke="#666666" points="160.12,-76 0.88,-76 0.88,-56 160.12,-56 160.12,-76"/>
<text xml:space="preserve" text-anchor="middle" x="80.5" y="-62.5" font-family="Helvetica,sans-Serif" font-size="10.00">GridColoring/GraphDefinition.hpp</text>
</a>
</g>
</g>
<!-- Node1&#45;&gt;Node2 -->
<g id="edge1_Node000001_Node000002" class="edge">
<title>Node1&#45;&gt;Node2</title>
<g id="a_edge1_Node000001_Node000002"><a xlink:title=" ">
<path fill="none" stroke="#63b8ff" d="M80.5,-111.59C80.5,-105.01 80.5,-95.96 80.5,-87.73"/>
<polygon fill="#63b8ff" stroke="#63b8ff" points="84,-87.81 80.5,-77.81 77,-87.81 84,-87.81"/>
</a>
</g>
</g>
<!-- Node3 -->
<g id="Node000003" class="node">
<title>Node3</title>
<g id="a_Node000003"><a xlink:title=" ">
<polygon fill="#e0e0e0" stroke="#999999" points="43,-20 0,-20 0,0 43,0 43,-20"/>
<text xml:space="preserve" text-anchor="middle" x="21.5" y="-6.5" font-family="Helvetica,sans-Serif" font-size="10.00">vector</text>
</a>
</g>
</g>
<!-- Node2&#45;&gt;Node3 -->
<g id="edge2_Node000002_Node000003" class="edge">
<title>Node2&#45;&gt;Node3</title>
<g id="a_edge2_Node000002_Node000003"><a xlink:title=" ">
<path fill="none" stroke="#63b8ff" d="M70.22,-55.59C61.93,-48.01 50.05,-37.13 40.1,-28.02"/>
<polygon fill="#63b8ff" stroke="#63b8ff" points="42.52,-25.49 32.78,-21.32 37.79,-30.65 42.52,-25.49"/>
</a>
</g>
</g>
<!-- Node4 -->
<g id="Node000004" class="node">
<title>Node4</title>
<g id="a_Node000004"><a xlink:title=" ">
<polygon fill="#e0e0e0" stroke="#999999" points="100.12,-20 60.88,-20 60.88,0 100.12,0 100.12,-20"/>
<text xml:space="preserve" text-anchor="middle" x="80.5" y="-6.5" font-family="Helvetica,sans-Serif" font-size="10.00">limits</text>
</a>
</g>
</g>
<!-- Node2&#45;&gt;Node4 -->
<g id="edge3_Node000002_Node000004" class="edge">
<title>Node2&#45;&gt;Node4</title>
<g id="a_edge3_Node000002_Node000004"><a xlink:title=" ">
<path fill="none" stroke="#63b8ff" d="M80.5,-55.59C80.5,-49.01 80.5,-39.96 80.5,-31.73"/>
<polygon fill="#63b8ff" stroke="#63b8ff" points="84,-31.81 80.5,-21.81 77,-31.81 84,-31.81"/>
</a>
</g>
</g>
<!-- Node5 -->
<g id="Node000005" class="node">
<title>Node5</title>
<g id="a_Node000005"><a xlink:title=" ">
<polygon fill="#e0e0e0" stroke="#999999" points="157.12,-20 117.88,-20 117.88,0 157.12,0 157.12,-20"/>
<text xml:space="preserve" text-anchor="middle" x="137.5" y="-6.5" font-family="Helvetica,sans-Serif" font-size="10.00">utility</text>
</a>
</g>
</g>
<!-- Node2&#45;&gt;Node5 -->
<g id="edge4_Node000002_Node000005" class="edge">
<title>Node2&#45;&gt;Node5</title>
<g id="a_edge4_Node000002_Node000005"><a xlink:title=" ">
<path fill="none" stroke="#63b8ff" d="M90.43,-55.59C98.44,-48.01 109.92,-37.13 119.53,-28.02"/>
<polygon fill="#63b8ff" stroke="#63b8ff" points="121.73,-30.76 126.59,-21.34 116.92,-25.68 121.73,-30.76"/>
</a>
</g>
</g>
</g>
</svg>
