<?xml version="1.0" encoding="UTF-8" standalone="no"?>
<!DOCTYPE svg PUBLIC "-//W3C//DTD SVG 1.1//EN"
 "http://www.w3.org/Graphics/SVG/1.1/DTD/svg11.dtd">
<!-- Generated by graphviz version 14.1.2 (0)
 -->
<!-- Title: SearchState Pages: 1 -->
<svg width="105pt" height="390pt"
 viewBox="0.00 0.00 105.00 390.00" xmlns="http://www.w3.org/2000/svg" xmlns:xlink="http://www.w3.org/1999/xlink">
<g id="graph0" class="graph" transform="scale(1 1) rotate(0) translate(4 386)">
<title>SearchState</title>
<!-- Node1 -->
<g id="Node000001" class="node">
<title>Node1</title>
<g id="a_Node000001"><a xlink:title="Encapsulates the entire current context of the search, including the grid state, color tallies,...">
<polygon fill="#999999" stroke="none" points="92.62,-84 4.12,-84 4.12,0 92.62,0 92.62,-84"/>
<text xml:space="preserve" text-anchor="start" x="21.38" y="-70.5" font-family="Helvetica,sans-Serif" font-size="10.00">SearchState</text>
<text xml:space="preserve" text-anchor="start" x="8.12" y="-54.5" font-family="Helvetica,sans-Serif" font-size="10.00">+</text>
<text xml:space="preserve" text-anchor="start" x="18.12" y="-54.5" font-family="Helvetica,sans-Serif" font-size="10.00">colorCounts</text>
<text xml:space="preserve" text-anchor="start" x="8.12" y="-38.5" font-family="Helvetica,sans-Serif" font-size="10.00">+</text>
<text xml:space="preserve" text-anchor="start" x="18.12" y="-38.5" font-family="Helvetica,sans-Serif" font-size="10.00">uncoloredNodes</text>
<text xml:space="preserve" text-anchor="start" x="8.12" y="-22.5" font-family="Helvetica,sans-Serif" font-size="10.00">+</text>
<text xml:space="preserve" text-anchor="start" x="18.12" y="-22.5" font-family="Helvetica,sans-Serif" font-size="10.00">currentBestDiff</text>
<text xml:space="preserve" text-anchor="start" x="8.12" y="-6.5" font-family="Helvetica,sans-Serif" font-size="10.00">+</text>
<text xml:space="preserve" text-anchor="start" x="18.12" y="-6.5" font-family="Helvetica,sans-Serif" font-size="10.00">SearchState()</text>
<polygon fill="#666666" stroke="#666666" points="4.12,-66 4.12,-66 92.62,-66 92.62,-66 4.12,-66"/>
<polygon fill="#666666" stroke="#666666" points="4.12,-18 4.12,-18 16.12,-18 16.12,-18 4.12,-18"/>
<polygon fill="#666666" stroke="#666666" points="16.12,-18 16.12,-18 92.62,-18 92.62,-18 16.12,-18"/>
<polygon fill="none" stroke="#666666" points="4.12,0 4.12,-84 92.62,-84 92.62,0 4.12,0"/>
</a>
</g>
</g>
<!-- Node2 -->
<g id="Node000002" class="node">
<title>Node2</title>
<g id="a_Node000002"><a xlink:href="classGrid1D.html" target="_top" xlink:title="Represents the grid as a 1D vector.">
<polygon fill="white" stroke="none" points="96.75,-382 0,-382 0,-154 96.75,-154 96.75,-382"/>
<text xml:space="preserve" text-anchor="start" x="33" y="-368.5" font-family="Helvetica,sans-Serif" font-size="10.00">Grid1D</text>
<text xml:space="preserve" text-anchor="start" x="5.5" y="-352.5" font-family="Helvetica,sans-Serif" font-size="10.00">&#45;</text>
<text xml:space="preserve" text-anchor="start" x="14" y="-352.5" font-family="Helvetica,sans-Serif" font-size="10.00">width</text>
<text xml:space="preserve" text-anchor="start" x="5.5" y="-336.5" font-family="Helvetica,sans-Serif" font-size="10.00">&#45;</text>
<text xml:space="preserve" text-anchor="start" x="14" y="-336.5" font-family="Helvetica,sans-Serif" font-size="10.00">height</text>
<text xml:space="preserve" text-anchor="start" x="5.5" y="-320.5" font-family="Helvetica,sans-Serif" font-size="10.00">&#45;</text>
<text xml:space="preserve" text-anchor="start" x="14" y="-320.5" font-family="Helvetica,sans-Serif" font-size="10.00">data</text>
<text xml:space="preserve" text-anchor="start" x="4" y="-304.5" font-family="Helvetica,sans-Serif" font-size="10.00">+</text>
<text xml:space="preserve" text-anchor="start" x="14" y="-304.5" font-family="Helvetica,sans-Serif" font-size="10.00">Grid1D()</text>
<text xml:space="preserve" text-anchor="start" x="4" y="-288.5" font-family="Helvetica,sans-Serif" font-size="10.00">+</text>
<text xml:space="preserve" text-anchor="start" x="14" y="-288.5" font-family="Helvetica,sans-Serif" font-size="10.00">getCoordinates()</text>
<text xml:space="preserve" text-anchor="start" x="4" y="-272.5" font-family="Helvetica,sans-Serif" font-size="10.00">+</text>
<text xml:space="preserve" text-anchor="start" x="14" y="-272.5" font-family="Helvetica,sans-Serif" font-size="10.00">getIndex()</text>
<text xml:space="preserve" text-anchor="start" x="4" y="-256.5" font-family="Helvetica,sans-Serif" font-size="10.00">+</text>
<text xml:space="preserve" text-anchor="start" x="14" y="-256.5" font-family="Helvetica,sans-Serif" font-size="10.00">isValid()</text>
<text xml:space="preserve" text-anchor="start" x="4" y="-240.5" font-family="Helvetica,sans-Serif" font-size="10.00">+</text>
<text xml:space="preserve" text-anchor="start" x="14" y="-240.5" font-family="Helvetica,sans-Serif" font-size="10.00">setColor()</text>
<text xml:space="preserve" text-anchor="start" x="4" y="-224.5" font-family="Helvetica,sans-Serif" font-size="10.00">+</text>
<text xml:space="preserve" text-anchor="start" x="14" y="-224.5" font-family="Helvetica,sans-Serif" font-size="10.00">getColor()</text>
<text xml:space="preserve" text-anchor="start" x="4" y="-208.5" font-family="Helvetica,sans-Serif" font-size="10.00">+</text>
<text xml:space="preserve" text-anchor="start" x="14" y="-208.5" font-family="Helvetica,sans-Serif" font-size="10.00">setColorByIndex()</text>
<text xml:space="preserve" text-anchor="start" x="4" y="-192.5" font-family="Helvetica,sans-Serif" font-size="10.00">+</text>
<text xml:space="preserve" text-anchor="start" x="14" y="-192.5" font-family="Helvetica,sans-Serif" font-size="10.00">getColorByIndex()</text>
<text xml:space="preserve" text-anchor="start" x="4" y="-176.5" font-family="Helvetica,sans-Serif" font-size="10.00">+</text>
<text xml:space="preserve" text-anchor="start" x="14" y="-176.5" font-family="Helvetica,sans-Serif" font-size="10.00">getWidth()</text>
<text xml:space="preserve" text-anchor="start" x="4" y="-160.5" font-family="Helvetica,sans-Serif" font-size="10.00">+</text>
<text xml:space="preserve" text-anchor="start" x="14" y="-160.5" font-family="Helvetica,sans-Serif" font-size="10.00">getHeight()</text>
<polygon fill="#666666" stroke="#666666" points="0,-364 0,-364 96.75,-364 96.75,-364 0,-364"/>
<polygon fill="#666666" stroke="#666666" points="0,-316 0,-316 12,-316 12,-316 0,-316"/>
<polygon fill="#666666" stroke="#666666" points="12,-316 12,-316 96.75,-316 96.75,-316 12,-316"/>
<polygon fill="none" stroke="#666666" points="0,-154 0,-382 96.75,-382 96.75,-154 0,-154"/>
</a>
</g>
</g>
<!-- Node2&#45;&gt;Node1 -->
<g id="edge1_Node000001_Node000002" class="edge">
<title>Node2&#45;&gt;Node1</title>
<g id="a_edge1_Node000001_Node000002"><a xlink:title=" ">
<path fill="none" stroke="#63b8ff" d="M48.38,-154.02C48.38,-134.1 48.38,-114.22 48.38,-96.91"/>
<polygon fill="none" stroke="#63b8ff" points="48.38,-96.82 44.38,-90.82 48.38,-84.82 52.38,-90.82 48.38,-96.82"/>
</a>
</g>
<text xml:space="preserve" text-anchor="start" x="51.38" y="-123.5" font-family="Helvetica,sans-Serif" font-size="10.00" fill="grey">+bestGrid</text>
<text xml:space="preserve" text-anchor="start" x="51.38" y="-107.5" font-family="Helvetica,sans-Serif" font-size="10.00" fill="grey">+grid</text>
</g>
</g>
</svg>
